<svg viewBox="0 0 108 108" fill="none" xmlns="http://www.w3.org/2000/svg">
<circle cx="54" cy="54" r="54" fill="#E1F4FF"/>
<path fill-rule="evenodd" clip-rule="evenodd" d="M53.5978 84.8881C33.2759 84.8881 16.8 82.7833 16.8 80.1872C16.8 77.5926 33.2759 75.4863 53.5978 75.4863C73.9225 75.4863 90.3983 77.5926 90.3983 80.1872C90.3983 82.7833 73.9225 84.8881 53.5978 84.8881Z" fill="#B5E2FF"/>
<path d="M43.2673 41.8087V37.8684C43.2673 34.4981 45.6728 31.5883 49.0336 31.3356C50.113 31.2544 51.2656 31.2002 52.4182 31.2002C53.5708 31.2002 54.7234 31.2544 55.8028 31.3356C59.1636 31.5883 61.569 34.4981 61.569 37.8684V41.1234" stroke="#1A2E52" stroke-width="3" stroke-linecap="round"/>
<path d="M67.1147 40.2169V40.2169C67.1147 39.0012 68.0223 37.972 69.237 37.9213C69.5375 37.9088 69.8512 37.9009 70.165 37.9009C70.5312 37.9009 70.8975 37.9116 71.2426 37.928C72.3716 37.9815 73.2153 38.937 73.2153 40.0673V40.0673" stroke="#1A2E52" stroke-width="2" stroke-linecap="round"/>
<path d="M32.7302 40.3009V40.3009C32.7302 39.0397 33.6691 37.9695 34.9293 37.9189C35.2063 37.9077 35.4934 37.9009 35.7805 37.9009C36.1216 37.9009 36.4627 37.9106 36.7867 37.9256C37.958 37.9799 38.8308 38.9733 38.8308 40.1458V40.1458" stroke="#1A2E52" stroke-width="2" stroke-linecap="round"/>
<path fill-rule="evenodd" clip-rule="evenodd" d="M21.8632 45.8887C22.4754 41.3023 26.5954 38.0967 31.2113 38.4164C38.0243 38.8882 47.2581 39.4751 51.2488 39.4911C71.4526 39.5724 79.217 41.5448 79.217 42.6607C79.217 44.3451 82.7955 61.5532 84.7431 70.794C85.3825 73.8278 83.14 76.7033 80.042 76.8274L25.1927 79.0244L25.0639 78.9895C22.0689 78.1791 19.9702 75.4962 20.0059 72.3937C20.0445 69.0295 20.1708 64.2911 20.5246 58.9267C20.8313 54.2768 21.3635 49.6318 21.8632 45.8887Z" fill="#1A2E52"/>
<path fill-rule="evenodd" clip-rule="evenodd" d="M23.6506 46.707C24.2165 41.6662 28.7031 38.1252 33.7716 38.326C39.149 38.5389 46.3844 38.752 53.8047 38.752C60.1901 38.752 66.5756 38.5942 71.7771 38.4145C78.2826 38.1897 83.8902 43.0726 84.3505 49.5656C84.5501 52.3808 84.7582 55.4717 84.9456 58.5595C85.2881 64.2004 85.5628 69.8514 85.7414 73.8137C85.8728 76.7284 83.4846 79.1207 80.5684 79.0282C74.6379 78.8402 64.6114 78.58 54.5158 78.58C44.2075 78.58 33.899 78.8512 27.9715 79.04C25.1775 79.129 22.841 76.9304 22.8068 74.1352C22.7545 69.8463 22.7197 63.5082 22.854 57.7848C22.9446 53.9222 23.2787 50.0196 23.6506 46.707Z" fill="#056DAE"/>
<ellipse cx="53.5273" cy="58.2788" rx="11.9238" ry="12.0043" fill="white"/>
<rect x="51.2485" y="52.416" width="4.05097" height="11.7252" fill="#ED1C24"/>
<path fill-rule="evenodd" clip-rule="evenodd" d="M59.0974 56.2393V60.3176H47.4509V56.2393H59.0974Z" fill="#ED1C24"/>
<path fill-rule="evenodd" clip-rule="evenodd" d="M67.8238 80.4738C67.6353 79.3704 68.3701 78.3208 69.4714 78.1204L74.5564 77.1951C75.6747 76.9916 76.7439 77.7401 76.9354 78.8605C77.1239 79.964 76.3891 81.0136 75.2877 81.214L70.2028 82.1393C69.0845 82.3428 68.0153 81.5942 67.8238 80.4738Z" fill="white"/>
<path fill-rule="evenodd" clip-rule="evenodd" d="M72.2524 77.6118L74.5564 77.1925C75.6747 76.989 76.7439 77.7376 76.9354 78.858C77.1239 79.9614 76.3891 81.011 75.2878 81.2114L72.9404 81.6386L72.2524 77.6118Z" fill="#056DAE"/>
<path fill-rule="evenodd" clip-rule="evenodd" d="M73.9638 76.3148C74.3586 75.2713 75.5289 74.7503 76.5685 75.1552L81.4599 77.0605C82.4852 77.4599 82.9976 78.6106 82.6082 79.6398C82.2134 80.6834 81.0431 81.2044 80.0035 80.7994L75.1121 78.8942C74.0868 78.4948 73.5745 77.3441 73.9638 76.3148Z" fill="white"/>
<path fill-rule="evenodd" clip-rule="evenodd" d="M79.2014 76.1831L81.4599 77.0628C82.4852 77.4622 82.9976 78.6129 82.6082 79.6422C82.2134 80.6857 81.0431 81.2067 80.0035 80.8018L77.7816 79.9363L79.2014 76.1831Z" fill="#5AADE4"/>
</svg>
