<svg width="408" height="460" viewBox="0 0 408 460" fill="none" xmlns="http://www.w3.org/2000/svg" class="needHelp-icon_help-2B_ w-auto h-auto"><g clip-path="url(#clip0_211_10039)"><path d="M86.5514 147.394C84.7833 147.394 83.3501 145.963 83.3501 144.197C83.3501 142.431 84.7833 141 86.5514 141C88.3194 141 89.7527 142.431 89.7527 144.197C89.7527 145.963 88.3194 147.394 86.5514 147.394Z" fill="#35C4B5"></path><path d="M44.868 147.394C43.1 147.394 41.6667 145.963 41.6667 144.197C41.6667 142.431 43.1 141 44.868 141C46.6361 141 48.0693 142.431 48.0693 144.197C48.0693 145.963 46.6361 147.394 44.868 147.394Z" fill="#35C4B5"></path><path d="M86.5514 188.806C84.7833 188.806 83.3501 187.375 83.3501 185.609C83.3501 183.844 84.7833 182.412 86.5514 182.412C88.3194 182.412 89.7527 183.844 89.7527 185.609C89.7527 187.375 88.3194 188.806 86.5514 188.806Z" fill="#35C4B5"></path><path d="M44.868 188.806C43.1 188.806 41.6667 187.375 41.6667 185.609C41.6667 183.844 43.1 182.412 44.868 182.412C46.6361 182.412 48.0693 183.844 48.0693 185.609C48.0693 187.375 46.6361 188.806 44.868 188.806Z" fill="#35C4B5"></path><path d="M83.3503 227.004C83.3404 227.648 83.5197 228.281 83.8654 228.822C84.2111 229.362 84.7075 229.786 85.2916 230.04C85.8756 230.294 86.5208 230.365 87.145 230.246C87.7693 230.126 88.3444 229.821 88.7971 229.369C89.2498 228.917 89.5596 228.338 89.6872 227.707C89.8148 227.075 89.7544 226.42 89.5136 225.823C89.2729 225.227 88.8626 224.717 88.3351 224.358C87.8076 223.999 87.1868 223.807 86.5516 223.807C85.7098 223.802 84.9004 224.136 84.3005 224.735C83.7006 225.334 83.359 226.15 83.3503 227.004Z" fill="#35C4B5"></path><path d="M41.667 227.004C41.6571 227.648 41.8364 228.281 42.1821 228.822C42.5278 229.362 43.0242 229.786 43.6083 230.04C44.1923 230.294 44.8375 230.365 45.4617 230.246C46.086 230.126 46.6611 229.821 47.1138 229.369C47.5665 228.917 47.8764 228.338 48.004 227.707C48.1316 227.075 48.0711 226.42 47.8303 225.823C47.5896 225.227 47.1794 224.717 46.6519 224.358C46.1244 223.999 45.5035 223.807 44.8683 223.807C44.0265 223.802 43.2172 224.136 42.6173 224.735C42.0174 225.334 41.6757 226.15 41.667 227.004Z" fill="#35C4B5"></path><path d="M3.2014 147.394C1.43337 147.394 9.15527e-05 145.963 9.15527e-05 144.197C9.15527e-05 142.431 1.43337 141 3.2014 141C4.96943 141 6.40271 142.431 6.40271 144.197C6.40271 145.963 4.96943 147.394 3.2014 147.394Z" fill="#35C4B5"></path><path d="M3.2014 188.806C1.43337 188.806 9.15527e-05 187.375 9.15527e-05 185.609C9.15527e-05 183.844 1.43337 182.412 3.2014 182.412C4.96943 182.412 6.40271 183.844 6.40271 185.609C6.40271 187.375 4.96943 188.806 3.2014 188.806Z" fill="#35C4B5"></path><path d="M0.000211239 227.004C-0.00966597 227.649 0.169989 228.282 0.516431 228.823C0.862874 229.364 1.36033 229.789 1.94533 230.042C2.53032 230.295 3.17635 230.365 3.80105 230.244C4.42574 230.123 5.00083 229.817 5.45287 229.363C5.90491 228.909 6.21349 228.329 6.33922 227.696C6.46495 227.064 6.40214 226.408 6.15881 225.812C5.91549 225.216 5.50266 224.707 4.97299 224.35C4.44333 223.992 3.82086 223.803 3.1849 223.807C2.76886 223.804 2.35645 223.885 1.97124 224.045C1.58603 224.204 1.23554 224.439 0.939815 224.736C0.644085 225.033 0.408864 225.386 0.247641 225.775C0.0864167 226.164 0.00238371 226.582 0.000211239 227.004Z" fill="#35C4B5"></path></g><g clip-path="url(#clip1_211_10039)"><path d="M390.551 346.394C388.783 346.394 387.35 344.963 387.35 343.197C387.35 341.431 388.783 340 390.551 340C392.319 340 393.753 341.431 393.753 343.197C393.753 344.963 392.319 346.394 390.551 346.394Z" fill="#00175A"></path><path d="M348.868 346.394C347.1 346.394 345.667 344.963 345.667 343.197C345.667 341.431 347.1 340 348.868 340C350.636 340 352.069 341.431 352.069 343.197C352.069 344.963 350.636 346.394 348.868 346.394Z" fill="#00175A"></path><path d="M390.551 387.806C388.783 387.806 387.35 386.375 387.35 384.609C387.35 382.844 388.783 381.412 390.551 381.412C392.319 381.412 393.753 382.844 393.753 384.609C393.753 386.375 392.319 387.806 390.551 387.806Z" fill="#00175A"></path><path d="M348.868 387.806C347.1 387.806 345.667 386.375 345.667 384.609C345.667 382.844 347.1 381.412 348.868 381.412C350.636 381.412 352.069 382.844 352.069 384.609C352.069 386.375 350.636 387.806 348.868 387.806Z" fill="#00175A"></path><path d="M387.35 426.004C387.34 426.648 387.52 427.281 387.865 427.822C388.211 428.362 388.708 428.786 389.292 429.04C389.876 429.294 390.521 429.365 391.145 429.246C391.769 429.126 392.344 428.821 392.797 428.369C393.25 427.917 393.56 427.338 393.687 426.707C393.815 426.075 393.754 425.42 393.514 424.823C393.273 424.227 392.863 423.717 392.335 423.358C391.808 422.999 391.187 422.807 390.552 422.807C389.71 422.802 388.9 423.136 388.301 423.735C387.701 424.334 387.359 425.15 387.35 426.004Z" fill="#00175A"></path><path d="M345.667 426.004C345.657 426.648 345.836 427.281 346.182 427.822C346.528 428.362 347.024 428.786 347.608 429.04C348.192 429.294 348.838 429.365 349.462 429.246C350.086 429.126 350.661 428.821 351.114 428.369C351.566 427.917 351.876 427.338 352.004 426.707C352.132 426.075 352.071 425.42 351.83 424.823C351.59 424.227 351.179 423.717 350.652 423.358C350.124 422.999 349.504 422.807 348.868 422.807C348.026 422.802 347.217 423.136 346.617 423.735C346.017 424.334 345.676 425.15 345.667 426.004Z" fill="#00175A"></path><path d="M307.201 346.394C305.433 346.394 304 344.963 304 343.197C304 341.431 305.433 340 307.201 340C308.969 340 310.403 341.431 310.403 343.197C310.403 344.963 308.969 346.394 307.201 346.394Z" fill="#00175A"></path><path d="M304 426.004C303.99 426.649 304.17 427.282 304.516 427.823C304.863 428.364 305.36 428.789 305.945 429.042C306.53 429.295 307.176 429.365 307.801 429.244C308.426 429.123 309.001 428.817 309.453 428.363C309.905 427.909 310.214 427.329 310.339 426.696C310.465 426.064 310.402 425.408 310.159 424.812C309.916 424.216 309.503 423.707 308.973 423.35C308.443 422.992 307.821 422.803 307.185 422.807C306.769 422.804 306.357 422.885 305.971 423.045C305.586 423.204 305.236 423.439 304.94 423.736C304.644 424.033 304.409 424.386 304.248 424.775C304.086 425.164 304.002 425.582 304 426.004Z" fill="#00175A"></path></g><path fill-rule="evenodd" clip-rule="evenodd" d="M92.3336 85.2587C88.7697 85.2587 85.2408 85.9608 81.9482 87.3248C78.6555 88.6889 75.6638 90.6883 73.1438 93.2088C70.6237 95.7293 68.6247 98.7215 67.2609 102.015C65.897 105.308 65.1951 108.837 65.1951 112.402V284.276C65.1951 323.669 94.2574 359.574 140.863 393.325C173.282 416.804 213.611 438.06 228.004 438.06C242.397 438.06 282.725 416.804 315.145 393.325C361.743 359.597 390.805 323.669 390.805 284.276V112.402C390.805 105.203 387.946 98.2991 382.856 93.2088C377.767 88.1184 370.864 85.2587 363.666 85.2587C323.1 85.2587 284.573 67.2756 247.172 29.8836C242.081 24.7968 235.18 21.9395 227.985 21.9395C220.789 21.9395 213.888 24.7968 208.798 29.8836C171.427 67.2756 132.9 85.2587 92.3336 85.2587Z" stroke="#CCD1DE" stroke-linecap="round" stroke-linejoin="round"></path><path fill-rule="evenodd" clip-rule="evenodd" d="M99.3307 92.8621C95.953 92.8621 92.6083 93.5268 89.4877 94.8184C86.3671 96.1099 83.5317 98.003 81.1432 100.389C78.7548 102.776 76.8602 105.609 75.5676 108.727C74.275 111.845 73.6097 115.187 73.6097 118.562V281.299C73.6097 318.597 101.154 352.593 145.325 384.55C176.051 406.781 214.273 426.907 227.914 426.907C241.555 426.907 279.777 406.781 310.503 384.55C354.667 352.615 382.211 318.597 382.211 281.299V118.562C382.211 111.746 379.501 105.209 374.678 100.389C369.854 95.5698 363.312 92.8621 356.49 92.8621C318.043 92.8621 281.528 75.835 246.081 40.431C241.256 35.6146 234.716 32.9092 227.896 32.9092C221.076 32.9092 214.535 35.6146 209.711 40.431C174.293 75.835 137.778 92.8621 99.3307 92.8621Z" fill="white" stroke="#CCD1DE" stroke-linecap="round" stroke-linejoin="round"></path><mask id="mask0_211_10039" maskUnits="userSpaceOnUse" x="73" y="32" width="310" height="395" style="mask-type: alpha;"><path fill-rule="evenodd" clip-rule="evenodd" d="M99.3307 92.4041C95.953 92.4041 92.6083 93.0688 89.4877 94.3604C86.3671 95.6519 83.5317 97.545 81.1432 99.9315C78.7548 102.318 76.8602 105.151 75.5676 108.269C74.275 111.387 73.6097 114.729 73.6097 118.104V280.841C73.6097 318.139 101.154 352.135 145.325 384.092C176.051 406.323 214.273 426.449 227.914 426.449C241.555 426.449 279.777 406.323 310.503 384.092C354.667 352.157 382.211 318.139 382.211 280.841V118.104C382.211 111.288 379.501 104.751 374.678 99.9315C369.854 95.1117 363.312 92.4041 356.49 92.4041C318.043 92.4041 281.528 75.377 246.081 39.9729C241.256 35.1566 234.716 32.4512 227.896 32.4512C221.076 32.4512 214.535 35.1566 209.711 39.9729C174.293 75.377 137.778 92.4041 99.3307 92.4041Z" fill="white"></path></mask><g mask="url(#mask0_211_10039)"><g opacity="0.1" clip-path="url(#clip2_211_10039)"><path fill-rule="evenodd" clip-rule="evenodd" d="M377.908 162.346C377.87 178.003 373.844 193.393 366.205 207.075L408 319.106C367.981 351.502 317.959 369.127 266.399 368.999C211.732 368.999 178.463 355.838 149.29 344.261C126.554 335.265 106.409 327.269 80.4959 327.269C54.5831 327.269 34.438 335.265 11.7017 344.261C-17.4711 355.838 -50.7398 368.999 -105.407 368.999C-156.968 369.128 -206.99 351.503 -247.008 319.106L-205.213 207.075C-212.852 193.393 -216.879 178.003 -216.916 162.346C-216.936 151.493 -212.635 141.074 -204.957 133.376C-197.278 125.678 -186.849 121.329 -175.957 121.282C-165.065 121.329 -154.636 125.678 -146.957 133.376C-139.279 141.074 -134.978 151.493 -134.998 162.346C-134.969 166.231 -135.75 170.079 -137.292 173.647C-138.834 177.215 -141.104 180.424 -143.957 183.071C-146.81 185.718 -150.185 187.746 -153.866 189.025C-157.547 190.303 -161.455 190.806 -165.341 190.5C-159.239 199.662 -150.462 204.993 -141.1 204.993C-135.416 204.993 -130.902 203.993 -125.97 202.91C-119.868 201.578 -113.014 199.995 -102.231 199.995H-99.7233V202.494C-99.7233 215.071 -102.983 224.567 -109.085 229.898C-99.0546 228.648 -92.8689 225.067 -86.5161 221.402C-78.3244 216.737 -70.049 211.906 -53.4146 211.906H-50.907V214.405C-50.907 222.068 -51.2413 229.731 -53.9998 235.895C-46.0588 230.897 -40.2075 224.067 -34.5234 217.487C-25.2449 206.659 -16.5517 196.58 -0.502441 196.58H2.00525V199.079C2.00525 208.991 2.00525 221.318 -5.01628 230.981C16.9678 222.734 42.2119 215.821 80.4123 215.821C118.613 215.821 143.857 222.734 165.841 230.981C158.903 221.318 158.819 208.991 158.819 199.079V196.58H161.327C177.376 196.58 186.07 206.659 195.348 217.487C201.032 224.067 206.883 230.897 214.824 235.895C212.066 229.731 211.732 222.068 211.732 214.405V211.906H214.239C230.874 211.906 239.233 216.654 247.341 221.402C253.694 225.067 259.879 228.648 269.91 229.898C263.808 224.484 260.548 214.988 260.548 202.494V199.995H263.056C271.061 199.963 279.037 200.943 286.795 202.91C291.727 203.993 296.241 204.993 301.925 204.993C311.287 204.993 320.064 199.662 326.166 190.5C322.277 190.8 318.367 190.294 314.684 189.014C311 187.734 307.623 185.708 304.765 183.063C301.906 180.418 299.628 177.212 298.075 173.646C296.522 170.081 295.726 166.233 295.739 162.346C295.739 151.489 300.068 141.076 307.772 133.398C315.477 125.72 325.927 121.407 336.823 121.407C347.72 121.407 358.17 125.72 365.874 133.398C373.579 141.076 377.908 151.489 377.908 162.346ZM336.531 125.447C346.081 125.44 355.245 129.206 362.013 135.92C368.782 142.633 372.604 151.747 372.642 161.263C372.642 213.655 324.661 256.302 265.73 256.302C229.954 256.302 207.385 247.056 183.478 237.228C166.259 230.148 162.915 219.236 162.832 200.662C175.119 201.661 182.475 210.24 190.751 219.736C198.441 228.565 206.8 238.31 220.676 243.641C229.703 247.389 239.4 248.972 248.344 249.722C243.44 247.854 238.758 245.452 234.384 242.558C222.682 239.976 216.245 237.644 215.911 215.821C229.62 216.238 236.976 220.486 244.499 224.734C252.69 229.398 260.966 234.146 277.684 234.146C287.341 234.133 296.905 232.267 305.854 228.648C300.014 229.371 294.099 229.23 288.3 228.232C272.083 230.731 265.647 220.069 264.978 203.827C271.8 204.017 278.582 204.938 285.207 206.575C290.477 207.946 295.894 208.673 301.34 208.741C314.212 208.741 325.999 200.578 332.937 187.001L335.611 181.837L330.011 183.42C326.558 184.415 322.92 184.598 319.384 183.954C315.848 183.31 312.51 181.857 309.633 179.71C306.757 177.562 304.42 174.778 302.806 171.577C301.193 168.376 300.348 164.845 300.337 161.263C300.407 151.743 304.251 142.636 311.031 135.927C317.81 129.218 326.976 125.451 336.531 125.447ZM171.023 207.575C173.054 208.367 174.966 209.432 176.708 210.74C181.9 222.053 190.486 231.482 201.283 237.727C196.769 235.895 192.255 234.062 187.741 232.147C187.24 231.897 186.738 231.73 186.237 231.48C185.819 231.314 185.317 231.064 184.899 230.897C179.08 224.955 174.48 217.938 171.358 210.24C171.118 209.373 171.006 208.475 171.023 207.575ZM361.859 212.906C342.549 242.892 306.606 263.132 265.48 263.132C228.867 263.132 205.88 253.637 181.89 243.641C155.559 232.73 128.058 221.318 79.7436 221.318C31.4288 221.318 3.92784 232.73 -22.4029 243.641C-46.3931 253.553 -69.2967 263.132 -105.993 263.132C-147.119 263.132 -183.062 242.892 -202.371 212.822L-241.408 317.773C-203.458 347.842 -155.394 364.334 -105.909 364.334C-52.2444 364.334 -19.4773 351.341 9.44473 339.846C32.4319 330.767 52.9949 322.521 79.7436 322.521C106.492 322.521 127.055 330.684 150.042 339.846C179.048 351.341 211.815 364.334 265.396 364.334C314.881 364.334 362.945 347.842 400.895 317.773L361.859 212.906ZM-23.4896 238.227C-47.3962 248.056 -69.8818 257.301 -105.742 257.301C-164.672 257.301 -212.653 214.655 -212.653 162.263C-212.62 152.737 -208.802 143.613 -202.035 136.885C-195.267 130.157 -186.101 126.374 -176.542 126.363C-166.979 126.361 -157.805 130.14 -151.035 136.87C-144.265 143.601 -140.451 152.733 -140.431 162.263C-140.448 165.843 -141.296 169.371 -142.911 172.569C-144.526 175.767 -146.863 178.549 -149.738 180.696C-152.613 182.843 -155.949 184.296 -159.483 184.942C-163.017 185.588 -166.653 185.409 -170.106 184.419L-175.706 182.837L-173.031 188.001C-166.093 201.661 -154.307 209.741 -141.435 209.741C-135.165 209.741 -130.401 208.658 -125.302 207.575C-118.657 205.898 -111.843 204.976 -104.989 204.826C-105.658 220.902 -112.095 231.73 -128.311 229.231C-134.106 230.271 -140.027 230.412 -145.865 229.648C-136.916 233.266 -127.352 235.133 -117.695 235.145C-100.977 235.145 -92.7018 230.398 -84.51 225.733C-76.9869 221.485 -69.631 217.237 -55.9223 216.821C-56.2567 239.143 -63.1946 241.059 -74.3956 243.558C-78.7975 246.404 -83.4739 248.803 -88.3551 250.721C-79.411 250.055 -69.7146 248.389 -60.687 244.641C-46.8947 239.31 -38.4521 229.648 -30.7619 220.735C-22.5701 211.24 -15.1306 202.744 -2.84293 201.661C-2.92653 220.236 -6.27011 231.147 -23.4896 238.227ZM336.364 145.104C340.464 145.109 344.394 146.734 347.294 149.623C350.193 152.511 351.823 156.428 351.828 160.514C351.828 181.67 342.884 200.828 327.838 211.823C310.618 224.4 288.133 223.401 271.916 214.655C271.199 212.744 270.694 210.761 270.411 208.741C270.834 208.756 271.254 208.811 271.665 208.908C271.783 208.895 271.902 208.925 272 208.991H272.25C283.535 215.904 306.021 221.485 324.828 207.742C338.537 197.663 346.729 180.088 346.729 160.514C346.729 157.774 345.637 155.147 343.693 153.21C341.749 151.273 339.113 150.185 336.364 150.185C333.615 150.185 330.978 151.273 329.034 153.21C327.091 155.147 325.999 157.774 325.999 160.514V163.013H320.9V160.514C320.904 156.428 322.535 152.511 325.434 149.623C328.333 146.734 332.264 145.109 336.364 145.104ZM382.505 314.858L352.914 242.975C329.593 263.632 298.999 274.96 266.316 274.96C227.196 274.96 203.205 265.048 178.63 254.886C152.717 244.224 126.136 233.229 80.3287 233.229C34.5216 233.229 7.94011 244.224 -17.9727 254.886C-42.548 265.048 -66.5382 274.96 -105.658 274.96C-138.342 274.96 -168.935 263.632 -192.257 242.975L-221.848 314.858C-187.827 337.93 -147.704 350.091 -105.742 350.091C-54.2505 350.091 -22.9044 337.68 5.51602 326.352C29.1719 316.94 50.738 308.361 80.2451 308.361C109.752 308.361 131.402 316.94 154.974 326.352C183.395 337.68 214.741 350.091 266.232 350.091C308.361 350.008 348.484 337.847 382.505 314.858ZM389.945 316.773L356.007 234.646C330.178 258.801 300.838 270.046 267.486 270.046C229.369 270.046 205.797 260.383 181.389 250.305C155.309 239.56 128.226 228.482 81.4154 228.482C34.6052 228.482 7.60574 239.56 -18.5578 250.305C-42.966 260.3 -66.5382 270.046 -104.655 270.046C-138.007 270.046 -167.347 258.717 -193.176 234.646L-227.114 316.773C-189.499 342.761 -148.205 355.089 -104.739 355.089C-52.2444 355.089 -20.3968 342.511 8.19087 331.183C31.5124 321.938 52.7441 313.525 81.3318 313.525C109.919 313.525 131.151 321.938 154.473 331.183C183.06 342.511 214.908 355.089 267.402 355.089C310.952 355.089 352.246 342.761 389.945 316.773ZM362.36 311.942L341.964 266.63C319.15 280.374 292.974 287.579 266.316 287.454C224.855 287.454 199.862 277.209 174.701 266.88C149.207 256.385 123.461 245.807 80.3287 245.807C37.1965 245.807 11.4509 256.385 -14.0439 266.88C-39.2044 277.209 -64.1977 287.454 -105.658 287.454C-132.311 287.539 -158.477 280.336 -181.307 266.63L-201.619 311.942C-172.332 328.384 -139.273 336.993 -105.658 336.931C-55.5044 336.931 -25.9973 325.02 1.33655 313.941C25.1596 304.279 47.3944 295.284 80.3287 295.284C113.263 295.284 135.498 304.279 159.321 313.941C186.738 325.02 216.162 336.931 266.316 336.931C299.959 337.004 333.047 328.395 362.36 311.942ZM369.8 314.525L345.141 259.717C322.07 274.46 297.244 282.873 267.402 282.873C226.945 282.873 202.37 272.794 177.46 262.549C151.798 251.971 125.801 241.309 81.6661 241.309C37.5308 241.309 11.4509 252.054 -14.1275 262.549C-39.1208 272.794 -63.6126 282.873 -104.154 282.873C-133.911 282.873 -158.738 274.46 -181.892 259.717L-206.467 314.525C-174.202 333.266 -140.264 342.428 -104.07 342.428C-53.1639 342.428 -23.2388 330.35 4.34578 319.189C27.918 309.693 49.8185 300.781 81.6661 300.781C113.514 300.781 135.414 309.61 158.987 319.189C186.571 330.35 216.496 342.428 267.402 342.428C303.513 342.428 337.45 333.266 369.8 314.525ZM-23.2388 232.98C-17.4196 227.037 -12.8199 220.02 -9.69728 212.323C-9.61369 211.406 -9.53011 210.574 -9.44652 209.574C-11.4769 210.366 -13.3893 211.431 -15.1306 212.739C-20.3228 224.052 -28.9092 233.481 -39.706 239.726C-35.1921 237.894 -30.6783 236.062 -26.1644 234.146C-25.6629 233.896 -25.1614 233.729 -24.6598 233.479C-24.1583 233.23 -23.6567 233.146 -23.2388 232.98ZM-67.9592 231.23C-88.6895 251.471 -118.531 256.718 -148.205 243.641C-180.972 229.148 -203.04 196.58 -203.04 162.596C-203.04 146.77 -190.502 133.943 -175.205 133.943C-159.741 133.943 -147.202 146.77 -147.202 162.596C-147.173 164.615 -147.544 166.619 -148.294 168.494C-149.043 170.37 -150.156 172.08 -151.569 173.527C-152.982 174.973 -154.667 176.128 -156.528 176.925C-158.389 177.722 -160.39 178.146 -162.416 178.172C-170.774 178.172 -177.629 171.175 -177.629 162.596V160.014H-172.613V162.596C-172.643 165.331 -171.588 167.967 -169.679 169.932C-167.77 171.897 -165.16 173.032 -162.416 173.091C-161.054 173.069 -159.711 172.781 -158.461 172.242C-157.212 171.702 -156.082 170.923 -155.135 169.949C-154.188 168.974 -153.443 167.823 -152.942 166.562C-152.442 165.3 -152.195 163.953 -152.218 162.596C-152.218 149.602 -162.499 139.107 -175.121 139.107C-187.743 139.107 -198.025 149.686 -198.025 162.596C-198.025 194.581 -177.211 225.317 -146.283 238.977C-119.032 250.971 -91.1136 246.723 -71.47 227.566C-70.9685 227.066 -70.2998 226.399 -69.5474 225.566C-66.9595 224.725 -64.3022 224.112 -61.6064 223.734C-63.4844 226.425 -65.6113 228.935 -67.9592 231.23ZM-176.375 151.351C-173.63 151.365 -171.001 152.457 -169.06 154.391C-167.119 156.325 -166.023 158.945 -166.01 161.68V164.179H-160.911V161.68C-160.915 157.594 -162.546 153.678 -165.445 150.789C-168.344 147.9 -172.275 146.275 -176.375 146.27C-180.475 146.275 -184.406 147.9 -187.305 150.789C-190.204 153.678 -191.835 157.594 -191.839 161.68C-191.839 182.837 -182.895 201.994 -167.849 212.989C-150.797 225.483 -128.395 224.65 -111.927 215.821C-111.21 213.911 -110.705 211.927 -110.423 209.907C-110.845 209.922 -111.265 209.977 -111.677 210.074C-111.844 210.074 -112.095 210.157 -112.262 210.157C-123.546 217.07 -146.032 222.651 -164.84 208.908C-178.548 198.829 -186.74 181.254 -186.74 161.68C-186.727 158.945 -185.631 156.325 -183.69 154.391C-181.749 152.457 -179.12 151.365 -176.375 151.351ZM309.531 160.43C309.531 144.605 322.07 131.777 337.367 131.777C352.664 131.777 365.202 144.605 365.202 160.43C365.202 194.498 343.134 227.066 310.367 241.476C281.027 254.469 251.102 249.555 230.121 229.065C227.799 226.746 225.674 224.238 223.769 221.568V221.485C226.472 221.823 229.133 222.437 231.71 223.318C232.462 224.15 233.131 224.817 233.632 225.317C253.276 244.474 281.195 248.722 308.445 236.728C339.456 223.068 360.187 192.415 360.187 160.347C360.187 147.353 349.905 136.858 337.283 136.858C324.661 136.858 314.38 147.437 314.38 160.347C314.324 161.716 314.547 163.082 315.034 164.364C315.521 165.645 316.264 166.815 317.216 167.803C318.168 168.791 319.312 169.578 320.577 170.115C321.842 170.652 323.203 170.929 324.578 170.929C325.953 170.929 327.314 170.652 328.579 170.115C329.844 169.578 330.987 168.791 331.939 167.803C332.891 166.815 333.634 165.645 334.121 164.364C334.609 163.082 334.831 161.716 334.776 160.347V157.848H339.791V160.43C339.82 162.449 339.449 164.453 338.7 166.329C337.95 168.204 336.837 169.914 335.424 171.361C334.012 172.808 332.326 173.962 330.465 174.76C328.604 175.557 326.603 175.98 324.578 176.006C316.135 176.006 309.531 169.01 309.531 160.43Z" fill="#006FCF"></path></g><path d="M66.5 279C166 286.985 393 316 380.5 316L341.5 368.5L226.5 433C209 424.254 173.2 406.649 170 406.193C166.8 405.736 107.167 353.117 81.5 326.5L66.5 279Z" fill="white"></path><path d="M213.884 200.685H242.779C256.447 200.685 263.358 195.22 265.282 184.278C266.47 177.494 268.363 170.864 270.291 164.246C271.722 159.301 272.875 153.942 272.602 150.198C271.947 141.311 278.048 140.154 275.684 134.645C267.465 115.604 246.107 103.848 228.345 103.848C219.651 103.848 200.317 107.653 204.671 128.565C182.999 121.002 181.78 141.003 184.074 150.194L187.032 161.95C188.881 169.306 190.082 176.799 191.398 184.274C193.305 195.22 200.216 200.685 213.884 200.685Z" fill="black"></path><path d="M204.09 227.58V186.826H252.679V227.58" fill="#CCD1DE"></path><path d="M233.213 208.094C240.394 208.076 247.276 205.219 252.354 200.145C257.433 195.071 260.296 188.195 260.316 181.018V156.001C260.296 148.827 257.435 141.952 252.359 136.879C247.283 131.806 240.405 128.947 233.226 128.926H223.564C216.386 128.948 209.508 131.808 204.433 136.88C199.357 141.953 196.496 148.827 196.474 156.001V181.018C196.495 188.193 199.356 195.067 204.432 200.14C209.507 205.213 216.386 208.073 223.564 208.094" fill="#CCD1DE"></path><path d="M252.085 189.549H262.799C263.186 189.549 263.499 189.236 263.499 188.849V164.431C263.499 164.045 263.186 163.732 262.799 163.732H252.085C251.698 163.732 251.385 164.045 251.385 164.431V188.849C251.385 189.236 251.698 189.549 252.085 189.549Z" fill="#CCD1DE"></path><path d="M193.961 189.549H204.675C205.062 189.549 205.375 189.236 205.375 188.849V164.431C205.375 164.045 205.062 163.732 204.675 163.732H193.961C193.574 163.732 193.261 164.045 193.261 164.431V188.849C193.261 189.236 193.574 189.549 193.961 189.549Z" fill="#CCD1DE"></path><path d="M340.873 283.826L342.137 275.796C342.137 250.217 304.944 234.162 276.107 226.445L260.316 223.994C241.388 223.7 215.627 223.233 196.716 222.938L176.687 226.458C145.019 234.175 110.969 252.513 110.969 278.097L112.29 285.476C113.826 294.077 119.773 301.169 127.186 307.32C143.588 320.906 153.488 340.788 154.844 362.034L157.094 397.232C158.528 423.847 157.785 450.535 154.871 477.029L153.387 490.501H300.678L299.023 476.862C295.704 449.496 294.701 421.898 296.026 394.363L297.571 362.325C298.605 340.859 308.298 320.576 324.806 306.801C332.901 300.021 339.553 292.392 340.873 283.826Z" fill="#CCD1DE"></path><path d="M369.104 404.13C380.58 399.77 383.106 386.092 378.396 373.707L341.701 269.223C336.991 256.825 323.745 250.247 312.274 254.603C300.797 258.958 295.269 272.668 299.979 285.066L342.678 389.471C347.393 401.865 357.632 408.486 369.104 404.13Z" fill="#CCD1DE"></path><path d="M297.082 509.08L300.489 512.961C308.413 517.444 308.276 519.076 314.488 508.121L375.059 405.173C381.266 394.231 379.901 381.613 371.978 377.129C364.054 372.646 346.561 377.93 340.354 388.872L292.31 496.625C286.095 507.549 289.172 504.606 297.082 509.08Z" fill="#CCD1DE"></path><path d="M84.8169 404.13C73.3409 399.77 70.8141 386.092 75.5242 373.707L112.219 269.223C116.934 256.825 130.175 250.247 141.647 254.603C153.123 258.958 158.656 272.668 153.942 285.066L111.242 389.471C106.532 401.865 96.2886 408.486 84.8169 404.13Z" fill="#CCD1DE"></path><path d="M156.838 509.08L153.436 512.961C145.512 517.444 145.644 519.076 139.437 508.121L78.8611 405.173C72.6543 394.231 74.0409 381.613 81.9425 377.129C89.8661 372.646 107.355 377.93 113.562 388.872L161.606 496.625C167.826 507.549 164.749 504.606 156.838 509.08Z" fill="#CCD1DE"></path><path d="M385.056 382.097L348.819 275.51C345.539 259.047 337.867 244.101 314.62 237.576L256.275 219.027C256.275 219.027 251.468 213.374 251.468 209.92L228.578 224.232L205.815 209.92C205.815 213.594 201.193 219.027 201.193 219.027L141.325 237.576C118.078 244.101 110.406 259.047 107.126 275.51L70.8888 382.097C67.2131 400.532 74.8506 417.765 84.9753 433.133L128.45 502.125C129.173 503.274 130.156 504.237 131.32 504.937C132.483 505.637 133.795 506.053 135.15 506.153C136.504 506.253 137.863 506.033 139.117 505.511C140.371 504.99 141.485 504.181 142.369 503.15L156.552 486.612C157.631 485.352 158.327 483.81 158.555 482.168C158.784 480.525 158.536 478.852 157.842 477.346L156.464 475.7H297.465L298.024 477.46C297.343 478.935 297.101 480.575 297.325 482.184C297.549 483.793 298.23 485.303 299.287 486.537L313.695 503.339C314.561 504.35 315.652 505.144 316.882 505.656C318.111 506.168 319.443 506.384 320.771 506.287C322.099 506.19 323.386 505.782 324.527 505.097C325.668 504.411 326.632 503.467 327.341 502.34L370.943 433.147C381.627 416.507 388.728 400.532 385.056 382.097ZM132.821 423.041C124.831 407.404 119.214 390.303 123.92 373.117L142.945 335.914L145.08 366.711L148.259 456.527L132.821 423.041ZM323.116 423.041L307.59 456.733L310.671 369.241L312.982 335.914L332.008 373.117C336.722 390.303 331.405 406.493 323.111 423.041H323.116Z" fill="#66A9E2"></path><path d="M221.227 289.343C226.356 289.531 231.419 289.887 236.414 290.412L234.503 269.861C230.713 269.487 226.879 269.228 223.014 269.052L221.227 289.343Z" fill="#00175A"></path><path d="M210.939 406.15L209.143 426.534C210.464 426.507 211.784 426.432 213.145 426.432C225.277 426.463 237.386 427.474 249.356 429.455L247.436 408.838C236.094 407.037 224.629 406.119 213.145 406.093C212.401 406.093 211.679 406.141 210.939 406.15Z" fill="#00175A"></path><path d="M223.234 266.513C226.945 266.685 230.625 266.953 234.265 267.287L232.359 246.816C229.925 246.6 227.482 246.411 225.017 246.274L223.234 266.513Z" fill="#00175A"></path><path d="M217.203 335.007C225.067 335.156 232.918 335.718 240.723 336.692L238.808 316.145C232.317 315.38 225.714 314.902 218.999 314.711L217.203 335.007Z" fill="#00175A"></path><path d="M212.96 383.219L211.164 403.602C211.828 403.602 212.484 403.554 213.144 403.554C224.543 403.569 235.925 404.452 247.19 406.194L245.275 385.573C234.635 384.002 223.895 383.206 213.14 383.192L212.96 383.219Z" fill="#00175A"></path><path d="M219.215 312.177C225.774 312.356 232.23 312.815 238.584 313.554L236.669 293.003C231.524 292.448 226.307 292.074 221.015 291.881L219.215 312.177Z" fill="#00175A"></path><path d="M215.191 357.842C224.452 357.931 233.698 358.597 242.876 359.835L240.965 339.288C233.008 338.266 225 337.678 216.979 337.528L215.191 357.842Z" fill="#00175A"></path><path d="M213.184 380.672C223.84 380.683 234.482 381.453 245.028 382.977L243.118 362.431C233.789 361.148 224.388 360.462 214.971 360.376L213.184 380.672Z" fill="#00175A"></path><path d="M228.556 224.231L219.752 233.493L225.422 241.852L225.254 243.735C227.561 243.863 229.85 244.043 232.135 244.241L231.906 241.813L237.628 233.488L228.556 224.231Z" fill="#00175A"></path><path d="M225.017 246.274C227.482 246.411 229.925 246.6 232.359 246.816L232.122 244.246C229.837 244.048 227.548 243.868 225.241 243.74L225.017 246.274Z" fill="white"></path><path d="M223.014 269.051C226.879 269.227 230.713 269.491 234.503 269.861L234.265 267.287C230.625 266.935 226.945 266.684 223.234 266.513L223.014 269.051Z" fill="white"></path><path d="M221.002 291.881C226.284 292.075 231.502 292.449 236.656 293.003L236.414 290.412C231.425 289.884 226.362 289.528 221.227 289.343L221.002 291.881Z" fill="white"></path><path d="M218.99 314.711C225.708 314.896 232.311 315.374 238.8 316.145L238.562 313.554C232.214 312.824 225.758 312.364 219.193 312.177L218.99 314.711Z" fill="white"></path><path d="M216.979 337.545C225 337.695 233.008 338.283 240.965 339.305L240.723 336.71C232.918 335.736 225.067 335.174 217.203 335.024L216.979 337.545Z" fill="white"></path><path d="M214.976 360.376C224.392 360.462 233.793 361.148 243.122 362.431L242.88 359.835C233.702 358.597 224.456 357.931 215.196 357.842L214.976 360.376Z" fill="white"></path><path d="M213.145 381.133V383.214C223.9 383.228 234.64 384.024 245.279 385.595L245.033 382.955C234.486 381.431 223.845 380.661 213.188 380.649L213.145 381.133Z" fill="white"></path><path d="M213.145 381.133L212.96 383.218H213.145V381.133Z" fill="white"></path><path d="M247.19 406.216C235.925 404.474 224.543 403.592 213.144 403.576C212.475 403.576 211.824 403.616 211.164 403.625L210.939 406.172C211.679 406.172 212.401 406.115 213.14 406.115C224.625 406.141 236.09 407.059 247.432 408.86L247.19 406.216Z" fill="white"></path><path d="M249.356 429.455C237.386 427.474 225.277 426.464 213.145 426.433C211.798 426.433 210.481 426.507 209.143 426.534L208.919 429.081C210.332 429.055 211.723 428.976 213.145 428.976C225.36 429.001 237.552 430.031 249.598 432.055L249.356 429.455Z" fill="white"></path><path d="M228.556 224.232L205.798 209.915L188.881 221.196L213.277 249.455L228.556 224.232Z" fill="#006FCF"></path><path d="M228.613 224.232L251.376 209.915L268.293 221.196L243.897 249.455L228.613 224.232Z" fill="#006FCF"></path><path d="M298.028 293.562H254.413V302.116H298.028V293.562Z" fill="#00175A"></path><path d="M270.881 162.777V156.618C270.493 148.597 268.621 140.718 265.361 133.379C258.318 117.945 245.684 109.792 228.824 109.792C211.965 109.792 199.331 117.945 192.288 133.379C189.024 140.726 187.152 148.615 186.768 156.644V162.777C183.092 163.429 180.31 166.495 180.31 170.191V180.829C180.31 185 183.831 188.379 188.233 188.379H189.316V180.614C189.547 180.478 189.739 180.285 189.874 180.054C190.009 179.823 190.082 179.561 190.087 179.294V171.74V164.216C190.087 164.04 190.386 152.975 195.369 142.099C201.941 127.76 213.206 120.488 228.86 120.488C244.513 120.488 255.778 127.76 262.346 142.099C267.347 153.006 267.628 164.097 267.628 164.19V179.285C267.633 179.553 267.706 179.814 267.841 180.046C267.976 180.277 268.168 180.469 268.399 180.605V188.37H269.481C273.848 188.37 277.405 184.991 277.405 180.821V170.191C277.357 166.495 274.575 163.429 270.881 162.777ZM228.811 117.337C213.475 117.337 201.642 124.073 194.326 136.876C194.638 136.102 194.964 135.328 195.321 134.553C201.893 120.21 213.158 112.942 228.811 112.942C244.465 112.942 255.73 120.21 262.297 134.553C262.655 135.328 262.987 136.102 263.292 136.876C255.994 124.073 244.161 117.337 228.829 117.337H228.811Z" fill="#FF6D6A"></path><path d="M199.762 159H189.215C188.709 159 188.3 159.41 188.3 159.915V190.744C188.3 191.249 188.709 191.659 189.215 191.659H199.762C200.268 191.659 200.678 191.249 200.678 190.744V159.915C200.678 159.41 200.268 159 199.762 159Z" fill="#006FCF"></path><path d="M268.773 159H258.226C257.72 159 257.31 159.41 257.31 159.915V190.744C257.31 191.249 257.72 191.659 258.226 191.659H268.773C269.278 191.659 269.688 191.249 269.688 190.744V159.915C269.688 159.41 269.278 159 268.773 159Z" fill="#006FCF"></path><path d="M260.356 188.379C260.353 191.578 259.079 194.645 256.815 196.907C254.552 199.169 251.482 200.441 248.281 200.443H231.761C231.461 201.514 230.819 202.458 229.933 203.131C229.047 203.803 227.965 204.168 226.852 204.169H221.878C220.527 204.169 219.232 203.633 218.277 202.678C217.322 201.724 216.785 200.429 216.785 199.079C216.785 197.729 217.322 196.434 218.277 195.479C219.232 194.525 220.527 193.989 221.878 193.989H226.861C227.974 193.99 229.056 194.354 229.942 195.027C230.828 195.7 231.47 196.644 231.769 197.715H248.29C250.767 197.713 253.142 196.728 254.894 194.978C256.646 193.228 257.632 190.855 257.636 188.379" fill="#00175A"></path><path d="M229.221 199.079C229.219 198.452 228.97 197.85 228.526 197.406C228.082 196.963 227.48 196.713 226.852 196.712H221.878C221.25 196.712 220.648 196.961 220.203 197.405C219.759 197.849 219.51 198.451 219.51 199.079C219.51 199.707 219.759 200.309 220.203 200.753C220.648 201.197 221.25 201.446 221.878 201.446H226.861C227.487 201.443 228.087 201.192 228.529 200.748C228.971 200.305 229.219 199.705 229.221 199.079Z" fill="black"></path><path d="M226.861 196.712C227.489 196.712 228.092 196.961 228.536 197.405C228.98 197.849 229.229 198.451 229.229 199.079C229.229 199.707 228.98 200.309 228.536 200.753C228.092 201.197 227.489 201.446 226.861 201.446H221.887C221.259 201.446 220.656 201.197 220.212 200.753C219.768 200.309 219.519 199.707 219.519 199.079C219.519 198.451 219.768 197.849 220.212 197.405C220.656 196.961 221.259 196.712 221.887 196.712H226.861Z" fill="#FDB92D"></path></g><defs><clipPath id="clip0_211_10039"><rect width="89.7527" height="89.2178" fill="white" transform="matrix(-1 0 0 1 89.7527 141)"></rect></clipPath><clipPath id="clip1_211_10039"><rect width="89.7527" height="89.2178" fill="white" transform="matrix(-1 0 0 1 393.753 340)"></rect></clipPath><clipPath id="clip2_211_10039"><rect width="683" height="258" fill="white" transform="translate(-275 111)"></rect></clipPath></defs></svg>