<svg viewBox="0 0 108 108" fill="none" xmlns="http://www.w3.org/2000/svg">
<circle cx="54" cy="54" r="54" fill="#E1F4FF"/>
<path fill-rule="evenodd" clip-rule="evenodd" d="M53.999 91.9688C39.0885 91.9688 27 90.4576 27 88.5938C27 86.731 39.0885 85.2188 53.999 85.2188C68.9115 85.2188 81 86.731 81 88.5938C81 90.4576 68.9115 91.9688 53.999 91.9688Z" fill="#B5E2FF"/>
<path fill-rule="evenodd" clip-rule="evenodd" d="M68.6857 73.9939L73.8134 60.2754L89.8952 64.2908C89.8952 64.2908 90.1455 64.379 90.1781 64.4296C90.2507 64.5422 90.1127 64.6544 90.0565 64.6995C89.4709 65.1697 88.8375 65.7609 88.1562 66.4732C86.921 67.7646 84.656 70.4435 84.656 70.4435C84.656 70.4435 84.8837 72.153 85.2059 73.6859C85.5281 75.2188 86.2964 78.2486 86.2964 78.2486C86.2964 78.2486 83.5007 77.5002 80.6417 76.8392C77.7827 76.1781 71.7991 74.8965 71.7991 74.8965L68.6857 73.9939Z" fill="#B30000"/>
<path fill-rule="evenodd" clip-rule="evenodd" d="M39.1317 73.8037L33.9104 60.2754C33.9104 60.2754 29.544 61.0612 27.0896 61.674C24.6352 62.2868 23.5295 62.8117 20.5988 63.6346C19.0386 64.0728 18.0246 64.3282 17.5569 64.4009C17.5101 64.4082 17.3199 64.4214 17.3071 64.4637C17.2985 64.4926 17.4403 64.6538 17.4403 64.6538C17.4403 64.6538 20.1504 67.5541 21.5411 68.9849C22.9319 70.4158 23.0678 70.4435 23.0678 70.4435C23.0678 70.4435 22.7963 71.3766 22.3156 73.6637C22.1266 74.5634 21.9911 75.5213 21.819 76.4234C21.746 76.806 21.6304 77.3484 21.4723 78.0505C21.4654 78.0809 21.4047 78.155 21.4723 78.1882C21.5006 78.2021 21.6681 78.1882 21.6681 78.1882C21.6681 78.1882 26.4939 77.102 30.7208 76.0408C34.9477 74.9796 39.1317 73.8037 39.1317 73.8037Z" fill="#B30000"/>
<path fill-rule="evenodd" clip-rule="evenodd" d="M28.8744 35.6221C40.771 34.5144 48.9902 28.8167 53.4652 25.4975C53.5481 25.436 53.7265 25.2794 53.9456 25.2939C54.1635 25.3084 54.422 25.4936 54.5211 25.567C59.0403 28.9115 67.2781 34.5673 79.1602 35.6353C79.2439 35.6428 79.4147 35.7007 79.514 35.8192C79.5961 35.9172 79.6162 36.071 79.6152 36.1434C79.5728 39.1695 79.3398 43.4678 78.5585 48.3503C78.1815 50.7062 77.5339 53.188 76.8615 55.7386C73.8564 67.1359 67.6397 79.7147 54.3464 86.5567C54.2853 86.5881 54.1726 86.6826 54.034 86.6928C53.8685 86.7049 53.6754 86.6274 53.6166 86.5973C31.2216 75.1583 28.455 47.4594 28.2761 36.3071C28.274 36.1807 28.3432 35.9721 28.4959 35.8192C28.6057 35.7092 28.7904 35.6299 28.8744 35.6221Z" fill="#3388BF"/>
<path fill-rule="evenodd" clip-rule="evenodd" d="M33.6304 39.0592C43.7649 38.2244 50.6332 34.1023 54.1725 31.3501C57.7166 34.1047 64.5865 38.2236 74.7119 39.0592C74.6427 47.9522 72.7026 72.778 54.4698 82.5433C54.4248 82.5674 54.2765 82.6338 54.1725 82.6408C54.0464 82.6493 53.9629 82.5936 53.917 82.5692C35.6443 72.844 33.6993 47.9767 33.6304 39.0592Z" fill="#B5E2FF"/>
<path fill-rule="evenodd" clip-rule="evenodd" d="M54.0116 36.8501C56.9121 39.0882 62.5344 42.4348 70.8211 43.1138C70.8211 48.5092 66.703 70.9389 54.009 78.5736" fill="#E1F4FF"/>
<path fill-rule="evenodd" clip-rule="evenodd" d="M28.0623 58.2643C28.0623 58.2643 28.4814 61.7707 28.6664 63.1397C28.8488 64.4891 29.0586 65.5636 29.1676 66.4401C29.4971 69.0889 30.0398 74.1613 30.0398 74.1613C30.0398 74.1613 30.2112 74.3184 30.3105 74.3498C30.567 74.431 30.8175 74.3857 30.9539 74.3498C36.2794 72.9478 40.3536 72.1178 43.1763 71.8599C46.6207 71.5452 49.8574 71.2294 53.1963 71.2294C60.7771 71.2294 69.1013 72.3128 78.169 74.4796C78.2355 74.4955 78.3859 74.5924 78.5191 74.4796C78.5694 74.437 78.6337 74.1789 78.6337 74.1789L80.6417 58.698C80.6417 58.698 80.5588 58.451 80.4943 58.361C80.3563 58.1683 80.18 58.0699 80.0868 58.0358C74.909 56.1392 68.9208 54.7515 61.99 54.3706C59.1698 54.2155 56.2679 54.0381 53.1963 54.0381C48.6686 54.0381 44.6474 54.3706 40.9327 54.7605C35.6569 55.3144 28.0623 58.2643 28.0623 58.2643Z" fill="#ED1C24"/>
<path d="M54.0205 56.9082L55.283 59.7997L55.3355 59.9006C55.4727 60.1255 55.7103 60.2743 55.9773 60.2965L59.1552 60.5596L56.7656 62.57L56.6816 62.6513C56.5008 62.853 56.4276 63.1327 56.4918 63.4009L57.219 66.4403L54.4413 64.8149L54.3265 64.759C54.0907 64.6659 53.8225 64.6845 53.5998 64.8149L50.8221 66.4403L51.5491 63.4115L51.5684 63.2961C51.594 63.0264 51.4865 62.7578 51.2754 62.5802L48.8848 60.5696L52.0637 60.3067C52.3692 60.2814 52.636 60.0903 52.7583 59.8093L54.0205 56.9082Z" fill="white"/>
<path d="M68.1726 58.5283L69.4351 61.4198L69.4876 61.5207C69.6248 61.7456 69.8624 61.8945 70.1294 61.9166L73.3073 62.1797L70.9177 64.1901L70.8337 64.2715C70.6529 64.4731 70.5797 64.7528 70.6439 65.021L71.3711 68.0604L68.5934 66.4351L68.4786 66.3792C68.2428 66.286 67.9746 66.3046 67.7519 66.4351L64.9742 68.0604L65.7012 65.0316L65.7205 64.9162C65.7461 64.6465 65.6386 64.3779 65.4275 64.2003L63.0369 62.1897L66.2158 61.9268C66.5213 61.9015 66.7881 61.7104 66.9104 61.4294L68.1726 58.5283Z" fill="white"/>
<path d="M39.4851 58.5283L40.7476 61.4198L40.8 61.5207C40.9373 61.7456 41.1749 61.8945 41.4419 61.9166L44.6198 62.1797L42.2302 64.1901L42.1462 64.2715C41.9654 64.4731 41.8922 64.7528 41.9564 65.021L42.6836 68.0604L39.9059 66.4351L39.7911 66.3792C39.5553 66.286 39.2871 66.3046 39.0644 66.4351L36.2867 68.0604L37.0137 65.0316L37.033 64.9162C37.0586 64.6465 36.9511 64.3779 36.74 64.2003L34.3494 62.1897L37.5283 61.9268C37.8337 61.9015 38.1006 61.7104 38.2229 61.4294L39.4851 58.5283Z" fill="white"/>
<path fill-rule="evenodd" clip-rule="evenodd" d="M8.4375 47.6766C11.2323 47.6766 13.5 49.944 13.5 52.7397C13.5 49.944 15.7664 47.6766 18.5625 47.6766C15.7664 47.6766 13.5 45.4105 13.5 42.6147C13.5 45.4105 11.2323 47.6766 8.4375 47.6766Z" fill="#ED1C24"/>
<path fill-rule="evenodd" clip-rule="evenodd" d="M22.9512 23.7104C25.2802 23.7104 27.1699 25.5999 27.1699 27.9297C27.1699 25.5999 29.0586 23.7104 31.3887 23.7104C29.0586 23.7104 27.1699 21.822 27.1699 19.4922C27.1699 21.822 25.2802 23.7104 22.9512 23.7104Z" fill="#B5E2FF"/>
<path fill-rule="evenodd" clip-rule="evenodd" d="M83.2566 14.3438C83.2566 18.0714 80.233 21.0929 76.5066 21.0929C80.233 21.0929 83.2566 24.1161 83.2566 27.8438C83.2566 24.1161 86.2784 21.0929 90.0066 21.0929C86.2784 21.0929 83.2566 18.0714 83.2566 14.3438Z" fill="#ED1C24"/>
</svg>
