<svg viewBox="0 0 108 108" fill="none" xmlns="http://www.w3.org/2000/svg">
<circle cx="54" cy="54" r="54" fill="#E1F4FF"/>
<path fill-rule="evenodd" clip-rule="evenodd" d="M53.9989 85.2188C37.2246 85.2188 23.625 83.7076 23.625 81.8438C23.625 79.981 37.2246 78.4688 53.9989 78.4688C70.7754 78.4688 84.375 79.981 84.375 81.8438C84.375 83.7076 70.7754 85.2188 53.9989 85.2188Z" fill="#B5E2FF"/>
<path fill-rule="evenodd" clip-rule="evenodd" d="M63.7796 74.7306C62.4545 74.9875 60.9733 74.7714 59.6721 74.769C55.0521 74.7606 50.4321 74.7462 45.812 74.7726C42.115 74.7943 38.2896 70.3795 36.3691 67.5371C33.9937 64.0178 32.7129 59.8239 32.7129 55.5783C32.7129 43.7324 42.3491 34.095 54.1963 34.095C66.0422 34.095 75.6784 43.7324 75.6784 55.5783C75.6784 59.651 74.5009 63.6817 72.3019 67.1098C71.224 68.7927 69.9108 70.3219 68.414 71.6446C67.3326 72.6013 66.2583 73.6551 64.9667 74.3285C64.5934 74.523 64.1937 74.6502 63.7796 74.7306ZM54.1963 27.8438C38.879 27.8438 26.4617 40.2611 26.4617 55.5783C26.4617 65.4294 31.8559 74.7234 40.395 79.6315C43.7727 81.5737 47.9786 80.9507 51.7488 80.9507H62.8842C67.8055 80.9507 72.159 77.2153 75.2295 73.6491C78.4439 69.9126 80.6297 65.3357 81.4963 60.4828C81.7856 58.8648 81.9296 57.2216 81.9296 55.5783C81.9296 40.2611 69.5123 27.8438 54.1963 27.8438Z" fill="#1A2E52"/>
<path fill-rule="evenodd" clip-rule="evenodd" d="M58.7719 56.8511C57.8909 55.814 56.6066 55.2427 55.1578 55.2427H53.0668C51.6084 55.2427 50.3409 55.8164 49.4959 56.8595C48.6509 57.9002 48.3508 59.2601 48.6437 60.6333C48.9521 63.4265 49.2606 66.2184 49.5703 69.0103C49.7912 71.0005 50.0108 71.7915 50.2305 73.7816C50.3577 74.9339 50.4633 77.5086 51.3948 78.0764C51.7957 78.32 52.295 78.326 52.7643 78.35C54.0955 78.4196 55.4303 78.3776 56.7566 78.242C57.2031 78.1976 57.6316 78.0703 58.0578 77.9299C58.7828 77.691 58.9832 75.7753 58.9856 74.7659C58.988 73.6268 59.2545 70.2503 59.3181 69.0944C59.4681 66.3432 59.6398 63.9354 59.7766 60.6753C59.839 59.2277 59.653 57.887 58.7719 56.8511Z" fill="#056DAE"/>
<path fill-rule="evenodd" clip-rule="evenodd" d="M77.1908 48.7206C75.1563 48.4373 72.4484 49.0315 70.319 49.1743C67.8307 49.3411 65.3413 49.5032 62.8494 49.6292C58.0757 49.8729 53.2697 50.0385 48.4948 49.7721C43.0717 49.4684 37.6511 49.1047 32.2305 48.771C31.9496 48.7542 31.6711 48.7362 31.3926 48.7194C30.1059 48.9078 29.13 49.7697 28.89 50.994C28.6559 52.1799 27.9609 53.6803 29.7218 54.3801L48.8285 62.0957C49.437 62.3382 50.0516 62.4594 50.6506 62.4594C51.3876 62.4594 57.2487 62.463 57.9833 62.463C58.5691 62.463 59.1656 62.3454 59.7442 62.1161L78.9541 54.3609C80.6622 53.6803 79.9672 52.1799 79.7331 50.994C79.493 49.7685 78.5148 48.9066 77.1908 48.7206Z" fill="#056DAE"/>
<path fill-rule="evenodd" clip-rule="evenodd" d="M30.7367 48.6789L31.3921 48.7197C31.5637 48.6945 31.7426 48.6789 31.925 48.6789H30.7367Z" fill="#056D98"/>
<path fill-rule="evenodd" clip-rule="evenodd" d="M60.3604 57.2273C60.3604 60.6338 57.5985 63.3945 54.1931 63.3945C50.7866 63.3945 48.0271 60.6338 48.0271 57.2273C48.0271 53.8208 50.7866 51.0601 54.1931 51.0601C57.5985 51.0601 60.3604 53.8208 60.3604 57.2273Z" fill="#1A2E52"/>
<path fill-rule="evenodd" clip-rule="evenodd" d="M54.1933 54.0483C52.4373 54.0483 51.0149 55.4719 51.0149 57.2268C51.0149 58.9829 52.4373 60.4064 54.1933 60.4064C55.9482 60.4064 57.3718 58.9829 57.3718 57.2268C57.3718 55.4719 55.9482 54.0483 54.1933 54.0483Z" fill="#ED1C24"/>
<path fill-rule="evenodd" clip-rule="evenodd" d="M53.2698 27.8678V34.143C53.5795 34.1286 53.8831 34.095 54.1952 34.095C54.5865 34.095 54.9682 34.1334 55.3535 34.1538V27.8738C54.9694 27.8582 54.5841 27.8438 54.1952 27.8438C53.8855 27.8438 53.5783 27.8582 53.2698 27.8678Z" fill="#ED1C24"/>
</svg>
